<?xml version="1.0" encoding="UTF-8" standalone="no"?>
<!-- Created with Inkscape (http://www.inkscape.org/) -->

<svg
   xmlns:dc="http://purl.org/dc/elements/1.1/"
   xmlns:cc="http://creativecommons.org/ns#"
   xmlns:rdf="http://www.w3.org/1999/02/22-rdf-syntax-ns#"
   xmlns:svg="http://www.w3.org/2000/svg"
   xmlns="http://www.w3.org/2000/svg"
   xmlns:xlink="http://www.w3.org/1999/xlink"
   xmlns:sodipodi="http://sodipodi.sourceforge.net/DTD/sodipodi-0.dtd"
   xmlns:inkscape="http://www.inkscape.org/namespaces/inkscape"
   version="1.0"
   width="180"
   height="90"
   viewBox="-26.361 -29.699 180 90"
   id="svg2654"
   xml:space="preserve"
   inkscape:version="0.47 r22583"
   sodipodi:docname="down.svg"><metadata
   id="metadata29"><rdf:RDF><cc:Work
       rdf:about=""><dc:format>image/svg+xml</dc:format><dc:type
         rdf:resource="http://purl.org/dc/dcmitype/StillImage" /></cc:Work></rdf:RDF></metadata><sodipodi:namedview
   pagecolor="#ffffff"
   bordercolor="#666666"
   borderopacity="1"
   objecttolerance="10"
   gridtolerance="10"
   guidetolerance="10"
   inkscape:pageopacity="0"
   inkscape:pageshadow="2"
   inkscape:window-width="1680"
   inkscape:window-height="972"
   id="namedview27"
   showgrid="true"
   inkscape:zoom="12.073119"
   inkscape:cx="75.297916"
   inkscape:cy="30.150375"
   inkscape:window-x="-4"
   inkscape:window-y="-4"
   inkscape:window-maximized="1"
   inkscape:current-layer="svg2654"><inkscape:grid
     type="xygrid"
     id="grid2835" /></sodipodi:namedview>
<defs
   id="defs2656"><inkscape:perspective
   sodipodi:type="inkscape:persp3d"
   inkscape:vp_x="0 : 45 : 1"
   inkscape:vp_y="0 : 1000 : 0"
   inkscape:vp_z="180 : 45 : 1"
   inkscape:persp3d-origin="90 : 30 : 1"
   id="perspective31" /><linearGradient
   id="linearGradient6910"><stop
     id="stop6912"
     style="stop-color:#ffffff;stop-opacity:1"
     offset="0" /><stop
     id="stop6914"
     style="stop-color:#ffffff;stop-opacity:0"
     offset="1" /></linearGradient><linearGradient
   id="linearGradient6902"><stop
     id="stop6904"
     style="stop-color:#ffffff;stop-opacity:1"
     offset="0" /><stop
     id="stop6906"
     style="stop-color:#ffffff;stop-opacity:0"
     offset="1" /></linearGradient><linearGradient
   x1="17.395906"
   y1="15.881111"
   x2="27.67215"
   y2="28.809288"
   id="linearGradient6908"
   xlink:href="#linearGradient6902"
   gradientUnits="userSpaceOnUse" /><linearGradient
   x1="108.22464"
   y1="18.201553"
   x2="94.633476"
   y2="30.135254"
   id="linearGradient6916"
   xlink:href="#linearGradient6910"
   gradientUnits="userSpaceOnUse" />
	<linearGradient
   gradientUnits="userSpaceOnUse"
   id="SVGID_1_"
   y2="72.217796"
   x2="69.639702"
   y1="-19.3125"
   x1="55.2915">
		<stop
   offset="0"
   style="stop-color:#505050;stop-opacity:1;"
   id="stop2894" />
		<stop
   offset="1"
   style="stop-color:#000000;stop-opacity:1"
   id="stop2896" />
	</linearGradient>
	
	<radialGradient
   gradientUnits="userSpaceOnUse"
   id="SVGID_2_"
   r="68.116402"
   cy="2.1533"
   cx="42.623001">
		<stop
   offset="0"
   style="stop-color:#323232;stop-opacity:1;"
   id="stop2901" />
		<stop
   offset="1"
   style="stop-color:#000000;stop-opacity:1;"
   id="stop2903" />
	</radialGradient>
	
<radialGradient
   inkscape:collect="always"
   xlink:href="#SVGID_2_"
   id="radialGradient3616"
   gradientUnits="userSpaceOnUse"
   cx="42.623001"
   cy="2.1533"
   r="68.116402" /><linearGradient
   inkscape:collect="always"
   xlink:href="#SVGID_1_"
   id="linearGradient3619"
   gradientUnits="userSpaceOnUse"
   x1="55.2915"
   y1="-19.3125"
   x2="69.639702"
   y2="72.217796" /><inkscape:perspective
   id="perspective2890"
   inkscape:persp3d-origin="0.5 : 0.33333333 : 1"
   inkscape:vp_z="1 : 0.5 : 1"
   inkscape:vp_y="0 : 1000 : 0"
   inkscape:vp_x="0 : 0.5 : 1"
   sodipodi:type="inkscape:persp3d" /></defs>
<path
   style="fill:url(#linearGradient3619)"
   id="path2898"
   d="m 93.331,0.001 c -7.599,7.604 -18.098,12.3 -29.691,12.3 -11.599,0 -22.097,-4.696 -29.694,-12.298 l 0,0 L 0,33.94 c 35.148,35.147 92.129,35.147 127.278,0 L 93.331,0.001 c 0,0 0,0 0,0 z" /><path
   style="fill:url(#radialGradient3616)"
   id="path2905"
   d="M 63.639,58.301 C 40.804,58.301 19.294,49.659 2.846,33.923 L 33.975,2.8 c 8.121,7.431 18.579,11.501 29.664,11.501 11.082,0 21.539,-4.07 29.659,-11.503 l 31.134,31.125 C 107.984,49.659 86.474,58.301 63.639,58.301 l 0,0 z" />
<path
   d="M 41.68,12.049 C 42.829,13.123 42.712,14.736 41.419,15.631 L 15.758,37.698 C 14.702,38.869 12.763,39.118 11.447,38.256 L 7.601,35.928 C 6.23,35.156 5.915,33.523 6.903,32.295 L 32.252,7.633 C 33.487,6.655 35.487,6.675 36.7,7.679 L 41.68,12.049 z"
   id="path2907"
   style="opacity:0.8;fill:url(#linearGradient6908);fill-opacity:1" />
<path
   d="M 83.505,12.034 C 93.404,7.95 93.056,6.272 101.965,14.85 C 105.331,18.087 122.433,32.129 117.976,36.582 C 105.367,49.198 106.352,33.556 101.118,26.936 C 98.014,23.011 93.655,20.055 88.859,18.536 C 87.509,18.107 74.575,14.006 83.505,12.034"
   id="path2909"
   style="opacity:0.8;fill:url(#linearGradient6916);fill-opacity:1" />
<path
   style="fill:#000000;fill-opacity:1;stroke:#000000;stroke-width:3.97500014000000010;stroke-linecap:butt;stroke-linejoin:round;stroke-miterlimit:4;stroke-opacity:1;stroke-dasharray:none"
   d="m 49.389,29.051 26.5,0 -13.25,13.25 -13.25,-13.25 z"
   id="path6734" /><path
   id="path6738"
   d="m 50.389,30.051 26.5,0 -13.25,13.25 -13.25,-13.25 z"
   style="fill:#cccccc;fill-opacity:1;stroke:#cccccc;stroke-width:3.97500014;stroke-linecap:butt;stroke-linejoin:round;stroke-miterlimit:4;stroke-opacity:1;stroke-dasharray:none" /></svg>