<?xml version="1.0" encoding="UTF-8" standalone="no"?>
<!-- Created with Inkscape (http://www.inkscape.org/) -->

<svg
   xmlns:dc="http://purl.org/dc/elements/1.1/"
   xmlns:cc="http://creativecommons.org/ns#"
   xmlns:rdf="http://www.w3.org/1999/02/22-rdf-syntax-ns#"
   xmlns:svg="http://www.w3.org/2000/svg"
   xmlns="http://www.w3.org/2000/svg"
   xmlns:xlink="http://www.w3.org/1999/xlink"
   xmlns:sodipodi="http://sodipodi.sourceforge.net/DTD/sodipodi-0.dtd"
   xmlns:inkscape="http://www.inkscape.org/namespaces/inkscape"
   version="1.0"
   width="210"
   height="210"
   viewBox="0 0 82 82"
   id="svg3469"
   xml:space="preserve"
   sodipodi:version="0.32"
   inkscape:version="0.47 r22583"
   sodipodi:docname="center.svg"
   inkscape:output_extension="org.inkscape.output.svg.inkscape"><metadata
   id="metadata2445"><rdf:RDF><cc:Work
       rdf:about=""><dc:format>image/svg+xml</dc:format><dc:type
         rdf:resource="http://purl.org/dc/dcmitype/StillImage" /><dc:title /></cc:Work></rdf:RDF></metadata><sodipodi:namedview
   inkscape:window-height="684"
   inkscape:window-width="1303"
   inkscape:pageshadow="2"
   inkscape:pageopacity="0.0"
   guidetolerance="10.0"
   gridtolerance="10.0"
   objecttolerance="10.0"
   borderopacity="1.0"
   bordercolor="#666666"
   pagecolor="#ffffff"
   id="base"
   showgrid="false"
   inkscape:zoom="2.2491497"
   inkscape:cx="17.100221"
   inkscape:cy="98.768662"
   inkscape:window-x="39"
   inkscape:window-y="90"
   inkscape:window-maximized="0"
   inkscape:current-layer="svg3469" />
<defs
   id="defs3471"><inkscape:perspective
   sodipodi:type="inkscape:persp3d"
   inkscape:vp_x="0 : 105 : 1"
   inkscape:vp_y="0 : 1000 : 0"
   inkscape:vp_z="210 : 105 : 1"
   inkscape:persp3d-origin="105 : 70 : 1"
   id="perspective32" /><linearGradient
   id="linearGradient6800"><stop
     id="stop6802"
     style="stop-color:#ffffff;stop-opacity:1"
     offset="0" /><stop
     id="stop6804"
     style="stop-color:#ffffff;stop-opacity:0"
     offset="1" /></linearGradient><linearGradient
   id="linearGradient6792"><stop
     id="stop6794"
     style="stop-color:#ffffff;stop-opacity:1"
     offset="0" /><stop
     id="stop6796"
     style="stop-color:#ffffff;stop-opacity:0"
     offset="1" /></linearGradient><linearGradient
   x1="40.8395"
   y1="1.9759037"
   x2="41"
   y2="37.37751"
   id="linearGradient6798"
   xlink:href="#linearGradient6792"
   gradientUnits="userSpaceOnUse"
   gradientTransform="matrix(0.3904762,0,0,0.3904762,24.990476,24.990475)" /><linearGradient
   x1="39.682732"
   y1="79.859444"
   x2="39.847389"
   y2="68.333336"
   id="linearGradient6806"
   xlink:href="#linearGradient6800"
   gradientUnits="userSpaceOnUse"
   gradientTransform="matrix(0.3904762,0,0,0.3904762,24.990476,24.990475)" /><inkscape:perspective
   id="perspective2857"
   inkscape:persp3d-origin="105 : 70 : 1"
   inkscape:vp_z="210 : 105 : 1"
   inkscape:vp_y="0 : 1000 : 0"
   inkscape:vp_x="0 : 105 : 1"
   sodipodi:type="inkscape:persp3d" />
	<linearGradient
   gradientUnits="userSpaceOnUse"
   id="SVGID_1_"
   y2="95.686699"
   x2="93.464996"
   y1="-16.7803"
   x1="-14.439">
		<stop
   offset="0"
   style="stop-color:#808080;stop-opacity:1;"
   id="stop3709" />
		<stop
   offset="1"
   style="stop-color:#1e1e1e;stop-opacity:1;"
   id="stop3711" />
	</linearGradient>
	
	<radialGradient
   gradientUnits="userSpaceOnUse"
   id="SVGID_2_"
   r="75.801399"
   cy="7.0556998"
   cx="18.971701">
		<stop
   offset="0"
   style="stop-color:#808080;stop-opacity:1;"
   id="stop3716" />
		<stop
   offset="1"
   style="stop-color:#1e1e1e;stop-opacity:1;"
   id="stop3718" />
	</radialGradient>
	
<radialGradient
   inkscape:collect="always"
   xlink:href="#SVGID_2_"
   id="radialGradient3693"
   gradientUnits="userSpaceOnUse"
   cx="18.971701"
   cy="7.0556998"
   r="75.801399"
   gradientTransform="matrix(0.3904762,0,0,0.3904762,24.990476,24.990475)" /><linearGradient
   inkscape:collect="always"
   xlink:href="#SVGID_1_"
   id="linearGradient3696"
   gradientUnits="userSpaceOnUse"
   x1="-14.439"
   y1="-16.7803"
   x2="93.464996"
   y2="95.686699"
   gradientTransform="matrix(0.3904762,0,0,0.3904762,24.990476,24.990475)" /></defs>
<g
   id="g3698"><path
     d="m 52.317562,29.679313 c 0,-3.9e-4 0,-3.9e-4 0,0 C 49.42101,26.780808 45.41941,24.990475 41,24.990475 c -4.421362,0 -8.422571,1.790333 -11.318733,4.687667 l 0,0 c -2.897724,2.899286 -4.690791,6.902448 -4.690791,11.321857 0,4.41941 1.793067,8.422572 4.6904,11.321858 l 0,0 C 32.577429,55.21919 36.578638,57.009523 41,57.009523 c 4.41941,0 8.42101,-1.790333 11.317562,-4.688447 0,0 0,0 0,-3.91e-4 2.898115,-2.898505 4.691962,-6.901667 4.691962,-11.320686 0,-4.419019 -1.793847,-8.422181 -4.691962,-11.320686 z"
     id="path3713"
     style="fill:url(#linearGradient3696);fill-opacity:1.0" /><path
     d="m 41,56.228571 c -4.068762,0 -7.891914,-1.583771 -10.766991,-4.458457 -2.877028,-2.878981 -4.461581,-6.704086 -4.461581,-10.770115 0,-4.066419 1.584553,-7.891133 4.461581,-10.770114 2.875467,-2.874686 6.69862,-4.458458 10.766991,-4.458458 4.067591,0 7.890353,1.583772 10.765429,4.459239 2.87781,2.878981 4.462362,6.702914 4.462362,10.769333 0,4.066029 -1.584552,7.890353 -4.462362,10.768553 C 48.890353,54.6448 45.067981,56.228571 41,56.228571 l 0,0 z"
     id="path3720"
     style="fill:url(#radialGradient3693)" /></g>
<path
   d="M 40.936743,36.726237 C 46.728286,36.726237 51.935286,39.141723 55.542114,42.986742 C 55.691666,42.169475 55.773666,41.330342 55.773666,40.471685 C 55.773666,32.545018 49.132057,26.120904 40.937133,26.120904 C 32.742209,26.120904 26.10099,32.545018 26.10099,40.471685 C 26.10099,41.330342 26.183381,42.169475 26.332933,42.986742 C 29.938981,39.141333 35.145981,36.726237 40.936743,36.726237 z"
   id="path3722"
   style="opacity:0.8;fill:url(#linearGradient6798);fill-opacity:1" />
<path
   d="M 30.908143,51.397207 C 30.908143,51.397207 35.386514,52.444077 40.911752,52.444077 C 46.43699,52.444077 50.91419,51.397207 50.91419,51.397207 C 50.91419,51.397207 47.580695,55.394907 40.911752,55.394907 C 34.544647,55.394907 30.908143,51.397207 30.908143,51.397207 z"
   id="path3724"
   style="opacity:0.8;fill:url(#linearGradient6806);fill-opacity:1" />
</svg>