<?xml version="1.0" encoding="UTF-8" standalone="no"?>
<!-- Created with Inkscape (http://www.inkscape.org/) -->

<svg
   xmlns:dc="http://purl.org/dc/elements/1.1/"
   xmlns:cc="http://creativecommons.org/ns#"
   xmlns:rdf="http://www.w3.org/1999/02/22-rdf-syntax-ns#"
   xmlns:svg="http://www.w3.org/2000/svg"
   xmlns="http://www.w3.org/2000/svg"
   xmlns:xlink="http://www.w3.org/1999/xlink"
   xmlns:sodipodi="http://sodipodi.sourceforge.net/DTD/sodipodi-0.dtd"
   xmlns:inkscape="http://www.inkscape.org/namespaces/inkscape"
   version="1.0"
   width="90"
   height="180"
   viewBox="-29.597 -26.349 90 180"
   id="svg4012"
   xml:space="preserve"
   inkscape:version="0.47 r22583"
   sodipodi:docname="right.svg"><metadata
   id="metadata30"><rdf:RDF><cc:Work
       rdf:about=""><dc:format>image/svg+xml</dc:format><dc:type
         rdf:resource="http://purl.org/dc/dcmitype/StillImage" /></cc:Work></rdf:RDF></metadata><sodipodi:namedview
   pagecolor="#ffffff"
   bordercolor="#666666"
   borderopacity="1"
   objecttolerance="10"
   gridtolerance="10"
   guidetolerance="10"
   inkscape:pageopacity="0"
   inkscape:pageshadow="2"
   inkscape:window-width="1680"
   inkscape:window-height="972"
   id="namedview28"
   showgrid="true"
   inkscape:zoom="15.323611"
   inkscape:cx="75.178375"
   inkscape:cy="86.86097"
   inkscape:window-x="-4"
   inkscape:window-y="-4"
   inkscape:window-maximized="1"
   inkscape:current-layer="svg4012"><inkscape:grid
     type="xygrid"
     id="grid2836" /></sodipodi:namedview>
<defs
   id="defs4014"><inkscape:perspective
   sodipodi:type="inkscape:persp3d"
   inkscape:vp_x="0 : 90 : 1"
   inkscape:vp_y="0 : 1000 : 0"
   inkscape:vp_z="90 : 90 : 1"
   inkscape:persp3d-origin="45 : 60 : 1"
   id="perspective32" /><linearGradient
   id="linearGradient6728"><stop
     id="stop6730"
     style="stop-color:#ffffff;stop-opacity:1"
     offset="0" /><stop
     id="stop6732"
     style="stop-color:#ffffff;stop-opacity:0"
     offset="1" /></linearGradient><linearGradient
   id="linearGradient6720"><stop
     id="stop6722"
     style="stop-color:#ffffff;stop-opacity:1"
     offset="0" /><stop
     id="stop6724"
     style="stop-color:#ffffff;stop-opacity:0"
     offset="1" /></linearGradient><linearGradient
   x1="17.029507"
   y1="19.193169"
   x2="28.595772"
   y2="34.012447"
   id="linearGradient6726"
   xlink:href="#linearGradient6720"
   gradientUnits="userSpaceOnUse" /><linearGradient
   x1="34.01746"
   y1="122.20523"
   x2="31.848783"
   y2="92.928108"
   id="linearGradient6734"
   xlink:href="#linearGradient6728"
   gradientUnits="userSpaceOnUse" />
	
		<linearGradient
   gradientTransform="matrix(1,-0.0032,0.0032,1,-0.2065,0.1021)"
   gradientUnits="userSpaceOnUse"
   id="SVGID_1_"
   y2="144.4465"
   x2="70.896103"
   y1="9.1138"
   x1="-0.43650001">
		<stop
   offset="0"
   style="stop-color:#808080;stop-opacity:1;"
   id="stop4252" />
		<stop
   offset="1"
   style="stop-color:#000000;stop-opacity:1"
   id="stop4254" />
	</linearGradient>
	
	
		<radialGradient
   gradientTransform="matrix(1,-0.0032,0.0032,1,-0.2065,0.1021)"
   gradientUnits="userSpaceOnUse"
   id="SVGID_2_"
   r="69.956001"
   cy="33.629398"
   cx="14.2725">
		<stop
   offset="0"
   style="stop-color:#808080;stop-opacity:1;"
   id="stop4259" />
		<stop
   offset="1"
   style="stop-color:#1e1e1e;stop-opacity:1;"
   id="stop4261" />
	</radialGradient>
	
<radialGradient
   inkscape:collect="always"
   xlink:href="#SVGID_2_"
   id="radialGradient3617"
   gradientUnits="userSpaceOnUse"
   gradientTransform="matrix(1,-0.0032,0.0032,1,-0.2065,0.1021)"
   cx="14.2725"
   cy="33.629398"
   r="69.956001" /><linearGradient
   inkscape:collect="always"
   xlink:href="#SVGID_1_"
   id="linearGradient3620"
   gradientUnits="userSpaceOnUse"
   gradientTransform="matrix(1,-0.0032,0.0032,1,-0.2065,0.1021)"
   x1="-0.43650001"
   y1="9.1138"
   x2="70.896103"
   y2="144.4465" /><inkscape:perspective
   id="perspective6784"
   inkscape:persp3d-origin="0.5 : 0.33333333 : 1"
   inkscape:vp_z="1 : 0.5 : 1"
   inkscape:vp_y="0 : 1000 : 0"
   inkscape:vp_x="0 : 0.5 : 1"
   sodipodi:type="inkscape:persp3d" /></defs>
<path
   style="fill:url(#linearGradient3620)"
   id="path4256"
   d="M 33.839,0 0,34.049 c 7.626,7.58 12.366,18.067 12.403,29.66 0.037,11.592 -4.637,22.11 -12.214,29.739 l 34.056,33.831 C 69.281,92.018 69.099,35.036 33.839,0 z" /><path
   style="fill:url(#radialGradient3617)"
   id="path4263"
   d="M 34.219,124.436 2.986,93.406 C 10.398,85.253 14.438,74.78 14.403,63.703 14.368,52.623 10.26,42.18 2.797,34.073 L 33.832,2.844 c 15.788,16.398 24.497,37.879 24.572,60.718 0.074,22.835 -8.501,44.374 -24.185,60.874 l 0,0 z" />
<path
   d="M 8.329,94.76 C 8.329,94.76 20.704,99.448 32.385,98.484 C 44.072,97.531 52.183,89.251 52.183,89.251 C 52.183,89.251 40.632,118.842 33.18,117.552 C 27.731,116.608 8.329,94.76 8.329,94.76 z"
   id="path4265"
   style="opacity:0.8;fill:url(#linearGradient6734);fill-opacity:1" />
<path
   d="M 42.089,15.184 C 43.275,16.209 43.421,19.083 42.089,19.942 L 14.993,37.951 C 13.902,39.069 11.223,39.555 9.865,38.732 L 6.577,36.257 C 5.163,35.519 4.838,33.955 5.856,32.781 L 29.813,8.839 C 34.863,4.368 34.296,5.572 37.484,8.839 L 42.089,15.184 z"
   id="path4267"
   style="opacity:0.8;fill:url(#linearGradient6726);fill-opacity:1" />
<g
   id="g2853"
   transform="translate(-35,0)"><path
     id="path6734"
     d="m 64.153,50.401 0,26.5 13.25,-13.25 -13.25,-13.25 z"
     style="fill:#333333;fill-opacity:1;stroke:#333333;stroke-width:3.97500014;stroke-linecap:butt;stroke-linejoin:round;stroke-miterlimit:4;stroke-opacity:1;stroke-dasharray:none" /><path
     style="fill:#cccccc;fill-opacity:1;stroke:#cccccc;stroke-width:3.97500014;stroke-linecap:butt;stroke-linejoin:round;stroke-miterlimit:4;stroke-opacity:1;stroke-dasharray:none"
     d="m 65.153,51.401 0,26.5 13.25,-13.25 -13.25,-13.25 z"
     id="path6738" /></g></svg>