<?xml version="1.0" encoding="UTF-8" standalone="no"?>
<!-- Created with Inkscape (http://www.inkscape.org/) -->

<svg
   xmlns:dc="http://purl.org/dc/elements/1.1/"
   xmlns:cc="http://creativecommons.org/ns#"
   xmlns:rdf="http://www.w3.org/1999/02/22-rdf-syntax-ns#"
   xmlns:svg="http://www.w3.org/2000/svg"
   xmlns="http://www.w3.org/2000/svg"
   xmlns:xlink="http://www.w3.org/1999/xlink"
   xmlns:sodipodi="http://sodipodi.sourceforge.net/DTD/sodipodi-0.dtd"
   xmlns:inkscape="http://www.inkscape.org/namespaces/inkscape"
   version="1.0"
   width="180"
   height="90"
   viewBox="-26.361 0 180 90"
   id="svg4823"
   xml:space="preserve"
   sodipodi:version="0.32"
   inkscape:version="0.47 r22583"
   sodipodi:docname="up.svg"
   inkscape:output_extension="org.inkscape.output.svg.inkscape"><metadata
   id="metadata145"><rdf:RDF><cc:Work
       rdf:about=""><dc:format>image/svg+xml</dc:format><dc:type
         rdf:resource="http://purl.org/dc/dcmitype/StillImage" /></cc:Work></rdf:RDF></metadata><sodipodi:namedview
   inkscape:window-height="972"
   inkscape:window-width="1680"
   inkscape:pageshadow="2"
   inkscape:pageopacity="0.0"
   guidetolerance="10.0"
   gridtolerance="10.0"
   objecttolerance="10.0"
   borderopacity="1.0"
   bordercolor="#666666"
   pagecolor="#ffffff"
   id="base"
   showgrid="true"
   inkscape:zoom="13.379982"
   inkscape:cx="93.318373"
   inkscape:cy="63.977015"
   inkscape:window-x="-4"
   inkscape:window-y="-4"
   inkscape:current-layer="svg4823"
   inkscape:window-maximized="1"><inkscape:grid
     type="xygrid"
     id="grid2831" /></sodipodi:namedview>
<defs
   id="defs4825"><inkscape:perspective
     sodipodi:type="inkscape:persp3d"
     inkscape:vp_x="0 : 45 : 1"
     inkscape:vp_y="0 : 1000 : 0"
     inkscape:vp_z="180 : 45 : 1"
     inkscape:persp3d-origin="90 : 30 : 1"
     id="perspective26" /><linearGradient
     id="linearGradient6636"><stop
       id="stop6638"
       style="stop-color:#ffffff;stop-opacity:1"
       offset="0" /><stop
       id="stop6640"
       style="stop-color:#ffffff;stop-opacity:0"
       offset="1" /></linearGradient><linearGradient
     x1="42.589275"
     y1="6.4640884"
     x2="46.567177"
     y2="22.044199"
     id="linearGradient6642"
     xlink:href="#linearGradient6636"
     gradientUnits="userSpaceOnUse" /><linearGradient
     x1="48.813999"
     y1="-17.882799"
     x2="91.480904"
     y2="109.4506"
     id="SVGID_1_"
     gradientUnits="userSpaceOnUse">
		<stop
   id="stop5063"
   style="stop-color:#808080;stop-opacity:1;"
   offset="0" />
		<stop
   id="stop5065"
   style="stop-color:#000000;stop-opacity:1"
   offset="1" />
	</linearGradient><radialGradient
     cx="50.263699"
     cy="25.0112"
     r="108.1723"
     id="SVGID_2_"
     gradientUnits="userSpaceOnUse">
		<stop
   id="stop5070"
   style="stop-color:#808080;stop-opacity:1;"
   offset="0" />
		<stop
   id="stop5072"
   style="stop-color:#1e1e1e;stop-opacity:1;"
   offset="1" />
	</radialGradient><radialGradient
     cx="50.263699"
     cy="25.0112"
     r="108.1723"
     id="radialGradient2401"
     xlink:href="#SVGID_2_"
     gradientUnits="userSpaceOnUse" /><linearGradient
     x1="48.813999"
     y1="-17.882799"
     x2="91.480904"
     y2="109.4506"
     id="linearGradient2404"
     xlink:href="#SVGID_1_"
     gradientUnits="userSpaceOnUse" /><inkscape:perspective
     id="perspective2895"
     inkscape:persp3d-origin="0.5 : 0.33333333 : 1"
     inkscape:vp_z="1 : 0.5 : 1"
     inkscape:vp_y="0 : 1000 : 0"
     inkscape:vp_x="0 : 0.5 : 1"
     sodipodi:type="inkscape:persp3d" /></defs>
<path
   d="M 33.945,60.298 C 41.542,52.696 52.04,48 63.639,48 C 75.233,48 85.732,52.696 93.33,60.3 C 93.33,60.3 93.33,60.3 93.33,60.301 L 127.277,26.361 C 92.129,-8.787 35.148,-8.787 0,26.36 L 33.945,60.298 L 33.945,60.298 z"
   id="path5067"
   style="fill:url(#linearGradient2404)" /><path
   d="M 93.302,57.505 C 85.179,50.07 74.723,46 63.638,46 C 52.549,46 42.093,50.071 33.974,57.503 L 2.843,26.377 C 19.292,10.64 40.802,1.999 63.638,1.999 C 86.477,1.999 107.985,10.64 124.434,26.378 L 93.302,57.505 L 93.302,57.505 z"
   id="path5074"
   style="fill:url(#radialGradient2401)" />
<path
   d="M 85.024,8.765 C 82.32,11.504 64.649,10.669 45.445,15.519 C 26.237,20.371 12.103,29.109 8.077,28.111 C 4.05,27.11 15.792,13.072 42.249,6.352 C 68.7,-0.363 87.729,6.021 85.024,8.765 z"
   id="path5076"
   style="opacity:0.8;fill:url(#linearGradient6642);fill-opacity:1" />
<g
   id="g2848"
   transform="translate(39,15)"><path
     id="path6734"
     d="m 10.389,14.25 26.5,0 L 23.639,1 10.389,14.25 z"
     style="fill:#333333;fill-opacity:1;stroke:#333333;stroke-width:3.97500014;stroke-linecap:butt;stroke-linejoin:round;stroke-miterlimit:4;stroke-opacity:1;stroke-dasharray:none" /><path
     style="fill:#cccccc;fill-opacity:1;stroke:#cccccc;stroke-width:3.97500014;stroke-linecap:butt;stroke-linejoin:round;stroke-miterlimit:4;stroke-opacity:1;stroke-dasharray:none"
     d="m 11.389,15.25 26.5,0 L 24.639,2 11.389,15.25 z"
     id="path6738" /></g></svg>