<?xml version="1.0" encoding="UTF-8" standalone="no"?>
<!-- Created with Inkscape (http://www.inkscape.org/) -->

<svg
   xmlns:dc="http://purl.org/dc/elements/1.1/"
   xmlns:cc="http://creativecommons.org/ns#"
   xmlns:rdf="http://www.w3.org/1999/02/22-rdf-syntax-ns#"
   xmlns:svg="http://www.w3.org/2000/svg"
   xmlns="http://www.w3.org/2000/svg"
   xmlns:xlink="http://www.w3.org/1999/xlink"
   xmlns:sodipodi="http://sodipodi.sourceforge.net/DTD/sodipodi-0.dtd"
   xmlns:inkscape="http://www.inkscape.org/namespaces/inkscape"
   version="1.0"
   width="210"
   height="210"
   viewBox="0 0 82 82"
   id="svg5364"
   xml:space="preserve"
   sodipodi:version="0.32"
   inkscape:version="0.47 r22583"
   sodipodi:docname="center_hover.svg"
   inkscape:output_extension="org.inkscape.output.svg.inkscape"><metadata
   id="metadata2483"><rdf:RDF><cc:Work
       rdf:about=""><dc:format>image/svg+xml</dc:format><dc:type
         rdf:resource="http://purl.org/dc/dcmitype/StillImage" /></cc:Work></rdf:RDF></metadata><sodipodi:namedview
   inkscape:window-height="972"
   inkscape:window-width="1680"
   inkscape:pageshadow="2"
   inkscape:pageopacity="0.0"
   guidetolerance="10.0"
   gridtolerance="10.0"
   objecttolerance="10.0"
   borderopacity="1.0"
   bordercolor="#666666"
   pagecolor="#ffffff"
   id="base"
   showgrid="false"
   inkscape:zoom="8.8780487"
   inkscape:cx="105"
   inkscape:cy="105"
   inkscape:window-x="-4"
   inkscape:window-y="-4"
   inkscape:current-layer="svg5364"
   inkscape:window-maximized="1" />
<defs
   id="defs5366"><inkscape:perspective
   sodipodi:type="inkscape:persp3d"
   inkscape:vp_x="0 : 105 : 1"
   inkscape:vp_y="0 : 1000 : 0"
   inkscape:vp_z="210 : 105 : 1"
   inkscape:persp3d-origin="105 : 70 : 1"
   id="perspective37" /><linearGradient
   id="linearGradient6572"><stop
     id="stop6574"
     style="stop-color:#ffffff;stop-opacity:1"
     offset="0" /><stop
     id="stop6576"
     style="stop-color:#ffffff;stop-opacity:0"
     offset="1" /></linearGradient><linearGradient
   id="linearGradient6564"><stop
     id="stop6566"
     style="stop-color:#ffffff;stop-opacity:1"
     offset="0" /><stop
     id="stop6568"
     style="stop-color:#ffffff;stop-opacity:0"
     offset="1" /></linearGradient><linearGradient
   x1="40.176708"
   y1="79.530121"
   x2="40.506023"
   y2="68.827309"
   id="linearGradient6570"
   xlink:href="#linearGradient6564"
   gradientUnits="userSpaceOnUse"
   gradientTransform="matrix(0.3904762,0,0,0.3904762,24.990476,24.990476)" /><linearGradient
   x1="39.682728"
   y1="1.3172691"
   x2="40.341366"
   y2="39.847389"
   id="linearGradient6578"
   xlink:href="#linearGradient6572"
   gradientUnits="userSpaceOnUse"
   gradientTransform="matrix(0.3904762,0,0,0.3904762,24.990476,24.990476)" />
	<radialGradient
   gradientUnits="userSpaceOnUse"
   id="SVGID_1_"
   r="62.999802"
   cy="59.792"
   cx="56.375">
		<stop
   offset="0"
   style="stop-color:#1dace7;stop-opacity:1;"
   id="stop5604" />
		<stop
   offset="0.1767"
   style="stop-color:#18a7e2;stop-opacity:1;"
   id="stop5606" />
		<stop
   offset="0.3522"
   style="stop-color:#17a0d9;stop-opacity:1;"
   id="stop5608" />
		<stop
   offset="0.52719998"
   style="stop-color:#169ad0;stop-opacity:1;"
   id="stop5610" />
		<stop
   offset="0.70209998"
   style="stop-color:#148cbe;stop-opacity:1;"
   id="stop5612" />
		<stop
   offset="0.87510002"
   style="stop-color:#127fac;stop-opacity:1;"
   id="stop5614" />
		<stop
   offset="1"
   style="stop-color:#0f6a91;stop-opacity:1;"
   id="stop5616" />
	</radialGradient>
	
	<radialGradient
   gradientUnits="userSpaceOnUse"
   id="SVGID_2_"
   r="73.856903"
   cy="7.9263"
   cx="19.5376">
		<stop
   offset="0"
   style="stop-color:#323232;stop-opacity:1;"
   id="stop5621" />
		<stop
   offset="1"
   style="stop-color:#000000;stop-opacity:1;"
   id="stop5623" />
	</radialGradient>
	
<radialGradient
   inkscape:collect="always"
   xlink:href="#SVGID_2_"
   id="radialGradient2855"
   gradientUnits="userSpaceOnUse"
   cx="19.5376"
   cy="7.9263"
   r="73.856903"
   gradientTransform="matrix(0.3904762,0,0,0.3904762,24.990476,24.990476)" /><radialGradient
   inkscape:collect="always"
   xlink:href="#SVGID_1_"
   id="radialGradient2858"
   gradientUnits="userSpaceOnUse"
   cx="56.375"
   cy="59.792"
   r="62.999802"
   gradientTransform="matrix(0.3904762,0,0,0.3904762,24.990476,24.990476)" /></defs>
<path
   style="fill:url(#radialGradient2858)"
   id="path5618"
   d="m 52.317562,29.679314 c 0,-3.9e-4 0,-3.9e-4 0,0 C 49.42101,26.780809 45.41941,24.990476 41,24.990476 c -4.421362,0 -8.422571,1.790333 -11.318733,4.687667 l 0,0 C 26.783543,32.577429 24.990476,36.580591 24.990476,41 c 0,4.41941 1.793067,8.422572 4.6904,11.321858 l 0,0 c 2.896553,2.897333 6.897762,4.687666 11.319124,4.687666 4.41941,0 8.42101,-1.790333 11.317562,-4.688447 0,0 0,0 0,-3.91e-4 C 55.215677,49.422181 57.009524,45.419019 57.009524,41 c 0,-4.419019 -1.793847,-8.422181 -4.691962,-11.320686 z" /><path
   style="fill:url(#radialGradient2855)"
   id="path5625"
   d="m 41,55.837705 c -3.964895,0 -7.690429,-1.542381 -10.490143,-4.344438 -2.803619,-2.805571 -4.347562,-6.531886 -4.347562,-10.493657 0,-3.960991 1.543943,-7.687305 4.347562,-10.494048 C 33.310352,27.704286 37.035886,26.161905 41,26.161905 c 3.962943,0 7.688086,1.543162 10.489362,4.345219 2.804791,2.8044 4.348343,6.531105 4.348343,10.492486 0,3.961381 -1.543552,7.688086 -4.348343,10.492876 C 48.688867,54.294543 44.964115,55.837705 41,55.837705 l 0,0 z" />
<path
   d="M 40.936743,36.726238 C 46.728286,36.726238 51.935286,39.141724 55.542116,42.986743 C 55.691668,42.169476 55.773668,41.330343 55.773668,40.471686 C 55.773668,32.545019 49.132057,26.120905 40.937133,26.120905 C 32.742209,26.120905 26.10099,32.545019 26.10099,40.471686 C 26.10099,41.330343 26.183381,42.169476 26.332933,42.986743 C 29.938981,39.141334 35.145981,36.726238 40.936743,36.726238 z"
   id="path5627"
   style="opacity:0.8;fill:url(#linearGradient6578);fill-opacity:1" />
<path
   d="M 30.908143,51.39721 C 30.908143,51.39721 35.386514,52.444076 40.911752,52.444076 C 46.43699,52.444076 50.91419,51.39721 50.91419,51.39721 C 50.91419,51.39721 47.580695,55.394905 40.911752,55.394905 C 34.544647,55.394905 30.908143,51.39721 30.908143,51.39721 z"
   id="path5629"
   style="opacity:0.8;fill:url(#linearGradient6570);fill-opacity:1" />
</svg>