<?xml version="1.0" encoding="UTF-8" standalone="no"?>
<!-- Created with Inkscape (http://www.inkscape.org/) -->

<svg
   xmlns:dc="http://purl.org/dc/elements/1.1/"
   xmlns:cc="http://creativecommons.org/ns#"
   xmlns:rdf="http://www.w3.org/1999/02/22-rdf-syntax-ns#"
   xmlns:svg="http://www.w3.org/2000/svg"
   xmlns="http://www.w3.org/2000/svg"
   xmlns:xlink="http://www.w3.org/1999/xlink"
   xmlns:sodipodi="http://sodipodi.sourceforge.net/DTD/sodipodi-0.dtd"
   xmlns:inkscape="http://www.inkscape.org/namespaces/inkscape"
   version="1.0"
   width="90"
   height="180"
   viewBox="0 -26.361 90 180"
   id="svg5636"
   xml:space="preserve"
   inkscape:version="0.47 r22583"
   sodipodi:docname="left.svg"><metadata
   id="metadata30"><rdf:RDF><cc:Work
       rdf:about=""><dc:format>image/svg+xml</dc:format><dc:type
         rdf:resource="http://purl.org/dc/dcmitype/StillImage" /><dc:title /></cc:Work></rdf:RDF></metadata><sodipodi:namedview
   pagecolor="#ffffff"
   bordercolor="#666666"
   borderopacity="1"
   objecttolerance="10"
   gridtolerance="10"
   guidetolerance="10"
   inkscape:pageopacity="0"
   inkscape:pageshadow="2"
   inkscape:window-width="1680"
   inkscape:window-height="972"
   id="namedview28"
   showgrid="true"
   inkscape:zoom="5.719763"
   inkscape:cx="30.201456"
   inkscape:cy="90"
   inkscape:window-x="-4"
   inkscape:window-y="-4"
   inkscape:window-maximized="1"
   inkscape:current-layer="svg5636"
   inkscape:snap-global="true"><inkscape:grid
     type="xygrid"
     id="grid6726" /></sodipodi:namedview>
<defs
   id="defs5638"><inkscape:path-effect
   effect="skeletal"
   id="path-effect6732"
   is_visible="true"
   pattern="M 0,0 0,10 10,5 z"
   copytype="single_stretched"
   prop_scale="1"
   scale_y_rel="false"
   spacing="0"
   normal_offset="0"
   tang_offset="0"
   prop_units="false"
   vertical_pattern="false"
   fuse_tolerance="0" /><marker
   inkscape:stockid="Arrow1Send"
   orient="auto"
   refY="0.0"
   refX="0.0"
   id="Arrow1Send"
   style="overflow:visible;"><path
     id="path3638"
     d="M 0.0,0.0 L 5.0,-5.0 L -12.5,0.0 L 5.0,5.0 L 0.0,0.0 z "
     style="fill-rule:evenodd;stroke:#000000;stroke-width:1.0pt;marker-start:none;"
     transform="scale(0.2) rotate(180) translate(6,0)" /></marker><marker
   inkscape:stockid="TriangleOutL"
   orient="auto"
   refY="0.0"
   refX="0.0"
   id="TriangleOutL"
   style="overflow:visible"><path
     id="path3766"
     d="M 5.77,0.0 L -2.88,5.0 L -2.88,-5.0 L 5.77,0.0 z "
     style="fill-rule:evenodd;stroke:#000000;stroke-width:1.0pt;marker-start:none"
     transform="scale(0.8)" /></marker><marker
   inkscape:stockid="Arrow2Lend"
   orient="auto"
   refY="0.0"
   refX="0.0"
   id="Arrow2Lend"
   style="overflow:visible;"><path
     id="path3644"
     style="font-size:12.0;fill-rule:evenodd;stroke-width:0.62500000;stroke-linejoin:round;"
     d="M 8.7185878,4.0337352 L -2.2072895,0.016013256 L 8.7185884,-4.0017078 C 6.9730900,-1.6296469 6.9831476,1.6157441 8.7185878,4.0337352 z "
     transform="scale(1.1) rotate(180) translate(1,0)" /></marker><marker
   inkscape:stockid="Arrow1Lend"
   orient="auto"
   refY="0.0"
   refX="0.0"
   id="Arrow1Lend"
   style="overflow:visible;"><path
     id="path3626"
     d="M 0.0,0.0 L 5.0,-5.0 L -12.5,0.0 L 5.0,5.0 L 0.0,0.0 z "
     style="fill-rule:evenodd;stroke:#000000;stroke-width:1.0pt;marker-start:none;"
     transform="scale(0.8) rotate(180) translate(12.5,0)" /></marker><marker
   inkscape:stockid="Arrow2Mend"
   orient="auto"
   refY="0.0"
   refX="0.0"
   id="Arrow2Mend"
   style="overflow:visible;"><path
     id="path3650"
     style="font-size:12.0;fill-rule:evenodd;stroke-width:0.62500000;stroke-linejoin:round;"
     d="M 8.7185878,4.0337352 L -2.2072895,0.016013256 L 8.7185884,-4.0017078 C 6.9730900,-1.6296469 6.9831476,1.6157441 8.7185878,4.0337352 z "
     transform="scale(0.6) rotate(180) translate(0,0)" /></marker><marker
   inkscape:stockid="Arrow1Lstart"
   orient="auto"
   refY="0.0"
   refX="0.0"
   id="Arrow1Lstart"
   style="overflow:visible"><path
     id="path3623"
     d="M 0.0,0.0 L 5.0,-5.0 L -12.5,0.0 L 5.0,5.0 L 0.0,0.0 z "
     style="fill-rule:evenodd;stroke:#000000;stroke-width:1.0pt;marker-start:none"
     transform="scale(0.8) translate(12.5,0)" /></marker><inkscape:perspective
   sodipodi:type="inkscape:persp3d"
   inkscape:vp_x="0 : 90 : 1"
   inkscape:vp_y="0 : 1000 : 0"
   inkscape:vp_z="90 : 90 : 1"
   inkscape:persp3d-origin="45 : 60 : 1"
   id="perspective32" /><linearGradient
   id="linearGradient6536"><stop
     id="stop6538"
     style="stop-color:#ffffff;stop-opacity:1"
     offset="0" /><stop
     id="stop6540"
     style="stop-color:#ffffff;stop-opacity:0"
     offset="1" /></linearGradient><linearGradient
   id="linearGradient6528"><stop
     id="stop6530"
     style="stop-color:#ffffff;stop-opacity:1"
     offset="0" /><stop
     id="stop6532"
     style="stop-color:#ffffff;stop-opacity:0"
     offset="1" /></linearGradient><linearGradient
   x1="26.024096"
   y1="4.7233377"
   x2="27.108435"
   y2="36.530567"
   id="linearGradient6534"
   xlink:href="#linearGradient6528"
   gradientUnits="userSpaceOnUse" /><linearGradient
   x1="26.746988"
   y1="118.81118"
   x2="27.108435"
   y2="93.277557"
   id="linearGradient6542"
   xlink:href="#linearGradient6536"
   gradientUnits="userSpaceOnUse" />
	<linearGradient
   gradientUnits="userSpaceOnUse"
   id="SVGID_1_"
   y2="127.4345"
   x2="67.283699"
   y1="7.1630998"
   x1="0.69870001">
		<stop
   offset="0"
   style="stop-color:#505050;stop-opacity:1;"
   id="stop5876" />
		<stop
   offset="1"
   style="stop-color:#000000;stop-opacity:1"
   id="stop5878" />
	</linearGradient>
	
	<radialGradient
   gradientUnits="userSpaceOnUse"
   id="SVGID_2_"
   r="97.035896"
   cy="10.7251"
   cx="14.0996">
		<stop
   offset="0"
   style="stop-color:#323232;stop-opacity:1;"
   id="stop5883" />
		<stop
   offset="1"
   style="stop-color:#000000;stop-opacity:1;"
   id="stop5885" />
	</radialGradient>
	
<radialGradient
   inkscape:collect="always"
   xlink:href="#SVGID_2_"
   id="radialGradient3617"
   gradientUnits="userSpaceOnUse"
   cx="14.0996"
   cy="10.7251"
   r="97.035896" /><linearGradient
   inkscape:collect="always"
   xlink:href="#SVGID_1_"
   id="linearGradient3620"
   gradientUnits="userSpaceOnUse"
   x1="0.69870001"
   y1="7.1630998"
   x2="67.283699"
   y2="127.4345" /><radialGradient
   inkscape:collect="always"
   xlink:href="#SVGID_2_"
   id="radialGradient3657"
   gradientUnits="userSpaceOnUse"
   cx="14.0996"
   cy="10.7251"
   r="97.035896" /><linearGradient
   inkscape:collect="always"
   xlink:href="#SVGID_1_"
   id="linearGradient3660"
   gradientUnits="userSpaceOnUse"
   x1="0.69870001"
   y1="7.1630998"
   x2="67.283699"
   y2="127.4345" /></defs>
<path
   style="fill:url(#linearGradient3660)"
   id="path5880"
   d="M 26.564,127.278 60.403,93.229 C 52.777,85.649 48.037,75.162 48,63.57 47.963,51.978 52.637,41.46 60.214,33.831 L 26.158,0 C -8.878,35.261 -8.695,92.242 26.564,127.278 z" /><path
   style="fill:url(#radialGradient3657)"
   id="path5887"
   d="M 26.573,124.434 C 10.784,108.037 2.073,86.555 2,63.716 1.928,40.88 10.502,19.344 26.184,2.843 l 31.231,31.03 C 50.004,42.026 45.965,52.498 46,63.575 c 0.036,11.079 4.143,21.524 11.608,29.632 l -31.035,31.227 0,0 z" />
<path
   d="M 55.044,33.789 C 55.044,33.789 39.294,26.754 27.887,27.698 C 16.476,28.626 7.198,39.246 7.198,39.246 C 7.198,39.246 17.443,8.676 26.291,8.176 C 32.099,7.848 55.044,33.789 55.044,33.789 z"
   id="path5889"
   style="opacity:0.8;fill:url(#linearGradient6534);fill-opacity:1" />
<path
   d="M 8.432,91.316 C 8.432,91.316 18.57,98.334 29.362,100.108 C 40.153,101.896 53.959,93.444 53.959,93.444 C 53.959,93.444 29.831,119.399 26.267,118.801 C 19.026,117.589 8.432,91.316 8.432,91.316 z"
   id="path5891"
   style="opacity:0.7;fill:url(#linearGradient6542);fill-opacity:1" />
<path
   style="fill:#000000;fill-opacity:1;stroke:#000000;stroke-width:3.97500014000000010;stroke-linecap:butt;stroke-linejoin:round;stroke-miterlimit:4;stroke-opacity:1;stroke-dasharray:none"
   d="m 30.25,50.389 0,26.5 L 17,63.639 30.25,50.389 z"
   id="path6734" /><path
   id="path6738"
   d="m 31.25,51.389 0,26.5 L 18,64.639 31.25,51.389 z"
   style="fill:#cccccc;fill-opacity:1;stroke:#cccccc;stroke-width:3.97500014;stroke-linecap:butt;stroke-linejoin:round;stroke-miterlimit:4;stroke-opacity:1;stroke-dasharray:none" /></svg>