<?xml version="1.0" encoding="UTF-8" standalone="no"?>
<!-- Created with Inkscape (http://www.inkscape.org/) -->

<svg
   xmlns:dc="http://purl.org/dc/elements/1.1/"
   xmlns:cc="http://creativecommons.org/ns#"
   xmlns:rdf="http://www.w3.org/1999/02/22-rdf-syntax-ns#"
   xmlns:svg="http://www.w3.org/2000/svg"
   xmlns="http://www.w3.org/2000/svg"
   xmlns:xlink="http://www.w3.org/1999/xlink"
   xmlns:sodipodi="http://sodipodi.sourceforge.net/DTD/sodipodi-0.dtd"
   xmlns:inkscape="http://www.inkscape.org/namespaces/inkscape"
   version="1.0"
   width="82"
   height="41.000004"
   viewBox="0 0 32.019048 16.009525"
   id="svg2"
   xml:space="preserve"
   inkscape:version="0.47 r22583"
   sodipodi:docname="down_pressed.svg"><metadata
   id="metadata42"><rdf:RDF><cc:Work
       rdf:about=""><dc:format>image/svg+xml</dc:format><dc:type
         rdf:resource="http://purl.org/dc/dcmitype/StillImage" /><dc:title></dc:title></cc:Work></rdf:RDF></metadata><sodipodi:namedview
   pagecolor="#ffffff"
   bordercolor="#666666"
   borderopacity="1"
   objecttolerance="10"
   gridtolerance="10"
   guidetolerance="10"
   inkscape:pageopacity="0"
   inkscape:pageshadow="2"
   inkscape:window-width="1680"
   inkscape:window-height="972"
   id="namedview40"
   showgrid="true"
   inkscape:zoom="17.756096"
   inkscape:cx="41"
   inkscape:cy="20.500002"
   inkscape:window-x="-4"
   inkscape:window-y="-4"
   inkscape:window-maximized="1"
   inkscape:current-layer="svg2"
   showguides="true"
   inkscape:guide-bbox="true"><inkscape:grid
     type="xygrid"
     id="grid2842"
     empspacing="5"
     visible="true"
     enabled="true"
     snapvisiblegridlinesonly="true" /><sodipodi:guide
     orientation="1,0"
     position="41,48.000006"
     id="guide2844" /><sodipodi:guide
     orientation="0,1"
     position="65,41.000006"
     id="guide2846" /></sodipodi:namedview>
<defs
   id="defs4"><inkscape:perspective
   sodipodi:type="inkscape:persp3d"
   inkscape:vp_x="0 : 105 : 1"
   inkscape:vp_y="0 : 1000 : 0"
   inkscape:vp_z="210 : 105 : 1"
   inkscape:persp3d-origin="105 : 70 : 1"
   id="perspective44" /><linearGradient
   id="linearGradient6946"><stop
     id="stop6948"
     style="stop-color:#ffffff;stop-opacity:1"
     offset="0" /><stop
     id="stop6950"
     style="stop-color:#ffffff;stop-opacity:0"
     offset="1" /></linearGradient><linearGradient
   id="linearGradient6938"><stop
     id="stop6940"
     style="stop-color:#ffffff;stop-opacity:1"
     offset="0" /><stop
     id="stop6942"
     style="stop-color:#ffffff;stop-opacity:0"
     offset="1" /></linearGradient><linearGradient
   x1="42.152611"
   y1="0.49397591"
   x2="41.658634"
   y2="39.353413"
   id="linearGradient6944"
   xlink:href="#linearGradient6938"
   gradientUnits="userSpaceOnUse"
   gradientTransform="matrix(0.3904762,0,0,0.3904762,24.990476,24.990478)" /><linearGradient
   x1="40.176704"
   y1="76.730927"
   x2="40.341366"
   y2="67.674698"
   id="linearGradient6952"
   xlink:href="#linearGradient6946"
   gradientUnits="userSpaceOnUse"
   gradientTransform="matrix(0.3904762,0,0,0.3904762,0,-16.009522)" />
	<linearGradient
   gradientUnits="userSpaceOnUse"
   id="SVGID_1_"
   y2="5.1255999"
   x2="41.0005"
   y1="105.0625"
   x1="41.0005">
		<stop
   offset="0"
   style="stop-color:#ffffff;stop-opacity:1"
   id="stop242" />
		<stop
   offset="0.0688"
   style="stop-color:#f0f0f0;stop-opacity:1"
   id="stop244" />
		<stop
   offset="0.2016"
   style="stop-color:#c8c8c8;stop-opacity:1"
   id="stop246" />
		<stop
   offset="0.38499999"
   style="stop-color:#888888;stop-opacity:1"
   id="stop248" />
		<stop
   offset="0.60960001"
   style="stop-color:#303030;stop-opacity:1"
   id="stop250" />
		<stop
   offset="0.72530001"
   style="stop-color:#000000;stop-opacity:1"
   id="stop252" />
	</linearGradient>
	
	<radialGradient
   gradientUnits="userSpaceOnUse"
   id="SVGID_2_"
   r="71.959702"
   cy="10.125"
   cx="24.7495">
		<stop
   offset="0"
   style="stop-color:#318ac0;stop-opacity:1;"
   id="stop257" />
		<stop
   offset="0.35139999"
   style="stop-color:#215b7f;stop-opacity:1;"
   id="stop259" />
		<stop
   offset="1"
   style="stop-color:#14384e;stop-opacity:1;"
   id="stop261" />
	</radialGradient>
	
	<linearGradient
   gradientUnits="userSpaceOnUse"
   id="SVGID_3_"
   y2="18.729099"
   x2="30.222401"
   y1="60.654301"
   x1="50.508801">
		<stop
   offset="0"
   style="stop-color:#1f5779;stop-opacity:1;"
   id="stop266" />
		<stop
   offset="0.32780001"
   style="stop-color:#14384e;stop-opacity:1;"
   id="stop268" />
		<stop
   offset="1"
   style="stop-color:#0b1f2c;stop-opacity:0.94117647;"
   id="stop270" />
	</linearGradient>
	
<linearGradient
   inkscape:collect="always"
   xlink:href="#SVGID_3_"
   id="linearGradient3638"
   gradientUnits="userSpaceOnUse"
   x1="51"
   y1="73.999992"
   x2="26"
   y2="48.999992"
   gradientTransform="matrix(0.3904762,0,0,0.3904762,0,-16.009522)" /><radialGradient
   inkscape:collect="always"
   xlink:href="#SVGID_2_"
   id="radialGradient3641"
   gradientUnits="userSpaceOnUse"
   cx="21"
   cy="45.999992"
   r="71.959702"
   gradientTransform="matrix(0.3904762,0,0,0.3904762,0,-16.009522)"
   fx="21"
   fy="45.999992" /><linearGradient
   inkscape:collect="always"
   xlink:href="#SVGID_1_"
   id="linearGradient3644"
   gradientUnits="userSpaceOnUse"
   x1="41.0005"
   y1="105.0625"
   x2="41"
   y2="40.999996"
   gradientTransform="matrix(0.3904762,0,0,0.3904762,0,-16.009522)" /></defs>
<path
   style="fill:url(#linearGradient3644);fill-opacity:1"
   id="path254"
   d="M 16.009524,0 C 9.761905,0 7.419048,0 0,2e-6 0,4.419412 1.793067,8.422574 4.6904,11.32186 l 0,0 c 2.896553,2.897333 6.897762,4.687666 11.319124,4.687666 4.41941,0 8.42101,-1.790333 11.317562,-4.688447 0,0 0,0 0,-3.91e-4 C 30.225201,8.422183 32.019048,4.419021 32.019048,2e-6 26.942857,0 23.038095,0 16.009524,0 z"
   sodipodi:nodetypes="ccccscscc" /><path
   style="opacity:0.86000001;fill:url(#radialGradient3641)"
   id="path263"
   d="m 16.009524,15.228574 c -4.068762,0 -7.891914,-1.583771 -10.766991,-4.458457 C 2.365505,7.891136 0.780953,3.904762 0.780953,0.390476 c 4.295238,0 7.028571,0 15.228571,0 5.857143,0 8.2,0 15.228571,0 0,3.904762 -1.585332,7.499879 -4.463142,10.378079 -2.875076,2.876248 -6.697448,4.460019 -10.765429,4.460019 l 0,0 z"
   sodipodi:nodetypes="cccccccc" /><path
   style="fill:url(#linearGradient3638)"
   id="path272"
   d="m 16.009524,14.447622 c -3.859857,0 -7.4866,-1.502553 -10.214076,-4.230029 C 3.065238,7.486212 1.561905,3.904762 1.561905,1.171429 c 6.247619,0 7.028571,0 14.447619,0 8.2,0 8.590476,0 14.447619,0 0,2.342857 -1.504504,6.313611 -4.234323,9.044602 -2.726696,2.729038 -6.353829,4.231591 -10.213296,4.231591 l 0,0 z"
   sodipodi:nodetypes="cccccccc" />

<path
   d="m 5.917667,10.397212 c 0,0 4.478371,1.046866 10.003609,1.046866 5.525238,0 10.002438,-1.046866 10.002438,-1.046866 0,0 -3.333495,3.997695 -10.002438,3.997695 -6.367104,0 -10.003609,-3.997695 -10.003609,-3.997695 z"
   id="path276"
   style="opacity:0.8;fill:url(#linearGradient6952);fill-opacity:1" />
</svg>